<svg width="54" height="54" viewBox="0 0 54 54" fill="none" xmlns="http://www.w3.org/2000/svg">
<g clip-path="url(#clip0_14_33)">
<mask id="path-1-outside-1_14_33" maskUnits="userSpaceOnUse" x="4" y="7" width="35" height="28" fill="black">
<rect fill="white" x="4" y="7" width="35" height="28"/>
<path d="M20.9375 33H20.4062L11.4375 13.4062V27.75C11.4375 28.6667 11.4792 29.4167 11.5625 30C11.6667 30.5625 11.8438 31.0104 12.0938 31.3438C12.3438 31.6771 12.6875 31.9167 13.125 32.0625C13.5625 32.2083 14.125 32.3021 14.8125 32.3438V33H6.4375V32.3438C7.16667 32.2812 7.75 32.1875 8.1875 32.0625C8.64583 31.9167 8.98958 31.6771 9.21875 31.3438C9.46875 31.0104 9.63542 30.5625 9.71875 30C9.80208 29.4167 9.84375 28.6667 9.84375 27.75V13.2812C9.84375 12.6354 9.80208 12.1146 9.71875 11.7188C9.65625 11.3229 9.5 11.0104 9.25 10.7812C9.02083 10.5521 8.6875 10.3958 8.25 10.3125C7.8125 10.2083 7.22917 10.1354 6.5 10.0938V9.375H13.5625L21.7812 27.4062L29.7188 9.375H36.7812V10.0938C36.1146 10.1354 35.5833 10.2083 35.1875 10.3125C34.7917 10.4167 34.4792 10.5833 34.25 10.8125C34.0208 11.0417 33.8646 11.3542 33.7812 11.75C33.7188 12.1458 33.6875 12.6562 33.6875 13.2812V29.1562C33.6875 29.7812 33.7292 30.2917 33.8125 30.6875C33.8958 31.0833 34.0417 31.3958 34.25 31.625C34.4792 31.8542 34.7917 32.0208 35.1875 32.125C35.6042 32.2292 36.1354 32.3021 36.7812 32.3438V33H26.7812V32.3438C27.4896 32.3021 28.0521 32.2292 28.4688 32.125C28.9062 32.0208 29.2396 31.8438 29.4688 31.5938C29.6979 31.3229 29.8438 30.9688 29.9062 30.5312C29.9896 30.0729 30.0312 29.4688 30.0312 28.7188V12.5625L20.9375 33Z"/>
</mask>
<path d="M20.9375 33H20.4062L11.4375 13.4062V27.75C11.4375 28.6667 11.4792 29.4167 11.5625 30C11.6667 30.5625 11.8438 31.0104 12.0938 31.3438C12.3438 31.6771 12.6875 31.9167 13.125 32.0625C13.5625 32.2083 14.125 32.3021 14.8125 32.3438V33H6.4375V32.3438C7.16667 32.2812 7.75 32.1875 8.1875 32.0625C8.64583 31.9167 8.98958 31.6771 9.21875 31.3438C9.46875 31.0104 9.63542 30.5625 9.71875 30C9.80208 29.4167 9.84375 28.6667 9.84375 27.75V13.2812C9.84375 12.6354 9.80208 12.1146 9.71875 11.7188C9.65625 11.3229 9.5 11.0104 9.25 10.7812C9.02083 10.5521 8.6875 10.3958 8.25 10.3125C7.8125 10.2083 7.22917 10.1354 6.5 10.0938V9.375H13.5625L21.7812 27.4062L29.7188 9.375H36.7812V10.0938C36.1146 10.1354 35.5833 10.2083 35.1875 10.3125C34.7917 10.4167 34.4792 10.5833 34.25 10.8125C34.0208 11.0417 33.8646 11.3542 33.7812 11.75C33.7188 12.1458 33.6875 12.6562 33.6875 13.2812V29.1562C33.6875 29.7812 33.7292 30.2917 33.8125 30.6875C33.8958 31.0833 34.0417 31.3958 34.25 31.625C34.4792 31.8542 34.7917 32.0208 35.1875 32.125C35.6042 32.2292 36.1354 32.3021 36.7812 32.3438V33H26.7812V32.3438C27.4896 32.3021 28.0521 32.2292 28.4688 32.125C28.9062 32.0208 29.2396 31.8438 29.4688 31.5938C29.6979 31.3229 29.8438 30.9688 29.9062 30.5312C29.9896 30.0729 30.0312 29.4688 30.0312 28.7188V12.5625L20.9375 33Z" fill="#1E3423"/>
<path d="M20.9375 33V35H22.2366L22.7648 33.8131L20.9375 33ZM20.4062 33L18.5877 33.8324L19.1222 35H20.4062V33ZM11.4375 13.4062L13.256 12.5738L9.4375 13.4062H11.4375ZM11.5625 30L9.5826 30.2828L9.58843 30.3236L9.59594 30.3642L11.5625 30ZM14.8125 32.3438H16.8125V30.4613L14.9335 30.3474L14.8125 32.3438ZM14.8125 33V35H16.8125V33H14.8125ZM6.4375 33H4.4375V35H6.4375V33ZM6.4375 32.3438L6.2667 30.3511L4.4375 30.5078V32.3438H6.4375ZM8.1875 32.0625L8.73694 33.9855L8.76555 33.9774L8.79391 33.9684L8.1875 32.0625ZM9.21875 31.3438L7.61875 30.1437L7.59402 30.1767L7.57067 30.2107L9.21875 31.3438ZM9.71875 30L11.6972 30.2931L11.6986 30.2828L9.71875 30ZM9.71875 11.7188L7.74322 12.0307L7.75116 12.081L7.76165 12.1308L9.71875 11.7188ZM9.25 10.7812L7.83579 12.1955L7.86652 12.2262L7.89855 12.2556L9.25 10.7812ZM8.25 10.3125L7.78676 12.2581L7.83105 12.2687L7.87578 12.2772L8.25 10.3125ZM6.5 10.0938H4.5V11.9827L6.3859 12.0905L6.5 10.0938ZM6.5 9.375V7.375H4.5V9.375H6.5ZM13.5625 9.375L15.3824 8.54549L14.8489 7.375H13.5625V9.375ZM21.7812 27.4062L19.9614 28.2358L21.813 32.2981L23.6117 28.212L21.7812 27.4062ZM29.7188 9.375V7.375H28.414L27.8883 8.5692L29.7188 9.375ZM36.7812 9.375H38.7812V7.375H36.7812V9.375ZM36.7812 10.0938L36.906 12.0899L38.7812 11.9727V10.0938H36.7812ZM33.7812 11.75L31.8242 11.338L31.8137 11.3878L31.8057 11.4381L33.7812 11.75ZM33.8125 30.6875L31.8554 31.0995L33.8125 30.6875ZM34.25 31.625L32.7701 32.9703L32.8021 33.0056L32.8358 33.0392L34.25 31.625ZM35.1875 32.125L34.6785 34.0592L34.6905 34.0623L34.7024 34.0653L35.1875 32.125ZM36.7812 32.3438H38.7812V30.4686L36.91 30.3479L36.7812 32.3438ZM36.7812 33V35H38.7812V33H36.7812ZM26.7812 33H24.7812V35H26.7812V33ZM26.7812 32.3438L26.6638 30.3472L24.7812 30.4579V32.3438H26.7812ZM28.4688 32.125L28.0055 30.1794L27.9946 30.182L27.9837 30.1847L28.4688 32.125ZM29.4688 31.5938L30.9431 32.9452L30.9699 32.9159L30.9955 32.8856L29.4688 31.5938ZM29.9062 30.5312L27.9385 30.1735L27.9317 30.2108L27.9264 30.2484L29.9062 30.5312ZM30.0312 12.5625H32.0312L28.204 11.7494L30.0312 12.5625ZM20.9375 33V31H20.4062V33V35H20.9375V33ZM20.4062 33L22.2248 32.1676L13.256 12.5738L11.4375 13.4062L9.61896 14.2387L18.5877 33.8324L20.4062 33ZM11.4375 13.4062H9.4375V27.75H11.4375H13.4375V13.4062H11.4375ZM11.4375 27.75H9.4375C9.4375 28.7155 9.48068 29.5694 9.5826 30.2828L11.5625 30L13.5424 29.7172C13.4777 29.264 13.4375 28.6178 13.4375 27.75H11.4375ZM11.5625 30L9.59594 30.3642C9.73644 31.1229 10.003 31.8895 10.4938 32.5438L12.0938 31.3438L13.6937 30.1437C13.6845 30.1314 13.5969 30.0021 13.5291 29.6358L11.5625 30ZM12.0938 31.3438L10.4938 32.5438C11.0137 33.237 11.7121 33.6997 12.4925 33.9599L13.125 32.0625L13.7575 30.1651C13.7295 30.1558 13.7107 30.1475 13.6993 30.1419C13.6881 30.1364 13.6831 30.133 13.6826 30.1326C13.6823 30.1324 13.6844 30.1338 13.6876 30.1369C13.6908 30.14 13.693 30.1427 13.6937 30.1437L12.0938 31.3438ZM13.125 32.0625L12.4925 33.9599C13.1552 34.1808 13.9066 34.2925 14.6915 34.3401L14.8125 32.3438L14.9335 30.3474C14.3434 30.3116 13.9698 30.2359 13.7575 30.1651L13.125 32.0625ZM14.8125 32.3438H12.8125V33H14.8125H16.8125V32.3438H14.8125ZM14.8125 33V31H6.4375V33V35H14.8125V33ZM6.4375 33H8.4375V32.3438H6.4375H4.4375V33H6.4375ZM6.4375 32.3438L6.6083 34.3364C7.39842 34.2687 8.12445 34.1605 8.73694 33.9855L8.1875 32.0625L7.63806 30.1395C7.37555 30.2145 6.93491 30.2938 6.2667 30.3511L6.4375 32.3438ZM8.1875 32.0625L8.79391 33.9684C9.59276 33.7142 10.3407 33.2421 10.8668 32.4768L9.21875 31.3438L7.57067 30.2107C7.58268 30.1932 7.59654 30.1766 7.61118 30.162C7.62572 30.1474 7.63801 30.1378 7.64548 30.1326C7.66062 30.1221 7.64664 30.1358 7.58109 30.1566L8.1875 32.0625ZM9.21875 31.3438L10.8187 32.5438C11.3278 31.865 11.582 31.0702 11.6972 30.2931L9.71875 30L7.74034 29.7069C7.6888 30.0548 7.60965 30.1559 7.61875 30.1437L9.21875 31.3438ZM9.71875 30L11.6986 30.2828C11.8006 29.5694 11.8438 28.7155 11.8438 27.75H9.84375H7.84375C7.84375 28.6178 7.80359 29.264 7.73885 29.7172L9.71875 30ZM9.84375 27.75H11.8438V13.2812H9.84375H7.84375V27.75H9.84375ZM9.84375 13.2812H11.8438C11.8438 12.5684 11.7994 11.8936 11.6758 11.3067L9.71875 11.7188L7.76165 12.1308C7.80477 12.3356 7.84375 12.7024 7.84375 13.2812H9.84375ZM9.71875 11.7188L11.6943 11.4068C11.5746 10.6486 11.243 9.89501 10.6014 9.30694L9.25 10.7812L7.89855 12.2556C7.83813 12.2002 7.79354 12.1373 7.76583 12.0819C7.73989 12.03 7.73935 12.0061 7.74322 12.0307L9.71875 11.7188ZM9.25 10.7812L10.6642 9.36704C10.0634 8.76618 9.31248 8.47892 8.62422 8.34782L8.25 10.3125L7.87578 12.2772C7.96352 12.2939 7.99143 12.3088 7.97926 12.3031C7.96411 12.296 7.90589 12.2656 7.83579 12.1955L9.25 10.7812ZM8.25 10.3125L8.71324 8.36689C8.11278 8.22392 7.39796 8.1418 6.6141 8.09701L6.5 10.0938L6.3859 12.0905C7.06037 12.129 7.51222 12.1927 7.78676 12.2581L8.25 10.3125ZM6.5 10.0938H8.5V9.375H6.5H4.5V10.0938H6.5ZM6.5 9.375V11.375H13.5625V9.375V7.375H6.5V9.375ZM13.5625 9.375L11.7426 10.2045L19.9614 28.2358L21.7812 27.4062L23.6011 26.5767L15.3824 8.54549L13.5625 9.375ZM21.7812 27.4062L23.6117 28.212L31.5492 10.1808L29.7188 9.375L27.8883 8.5692L19.9508 26.6005L21.7812 27.4062ZM29.7188 9.375V11.375H36.7812V9.375V7.375H29.7188V9.375ZM36.7812 9.375H34.7812V10.0938H36.7812H38.7812V9.375H36.7812ZM36.7812 10.0938L36.6565 8.09764C35.9303 8.14303 35.2536 8.22701 34.6785 8.37835L35.1875 10.3125L35.6965 12.2466C35.9131 12.1897 36.2988 12.1278 36.906 12.0899L36.7812 10.0938ZM35.1875 10.3125L34.6785 8.37835C34.029 8.54928 33.3731 8.86096 32.8358 9.39829L34.25 10.8125L35.6642 12.2267C35.6462 12.2447 35.63 12.258 35.6175 12.2671C35.6052 12.2762 35.5978 12.2802 35.5974 12.2803C35.5974 12.2803 35.626 12.2652 35.6965 12.2466L35.1875 10.3125ZM34.25 10.8125L32.8358 9.39829C32.2713 9.96274 31.9676 10.6567 31.8242 11.338L33.7812 11.75L35.7383 12.162C35.7502 12.1058 35.759 12.0947 35.7498 12.1132C35.7393 12.1342 35.7131 12.1779 35.6642 12.2267L34.25 10.8125ZM33.7812 11.75L31.8057 11.4381C31.7206 11.9774 31.6875 12.6027 31.6875 13.2812H33.6875H35.6875C35.6875 12.7098 35.7169 12.3142 35.7568 12.0619L33.7812 11.75ZM33.6875 13.2812H31.6875V29.1562H33.6875H35.6875V13.2812H33.6875ZM33.6875 29.1562H31.6875C31.6875 29.8535 31.7325 30.516 31.8554 31.0995L33.8125 30.6875L35.7696 30.2755C35.7258 30.0674 35.6875 29.709 35.6875 29.1562H33.6875ZM33.8125 30.6875L31.8554 31.0995C31.9901 31.7395 32.2601 32.4093 32.7701 32.9703L34.25 31.625L35.7299 30.2797C35.7521 30.3041 35.7683 30.326 35.7794 30.343C35.7904 30.3598 35.7956 30.3706 35.7967 30.373C35.7985 30.3767 35.785 30.3488 35.7696 30.2755L33.8125 30.6875ZM34.25 31.625L32.8358 33.0392C33.3731 33.5765 34.029 33.8882 34.6785 34.0592L35.1875 32.125L35.6965 30.1908C35.626 30.1723 35.5974 30.1572 35.5974 30.1572C35.5978 30.1573 35.6052 30.1613 35.6175 30.1704C35.63 30.1795 35.6462 30.1928 35.6642 30.2108L34.25 31.625ZM35.1875 32.125L34.7024 34.0653C35.2787 34.2093 35.9403 34.2937 36.6525 34.3396L36.7812 32.3438L36.91 30.3479C36.3305 30.3105 35.9297 30.249 35.6726 30.1847L35.1875 32.125ZM36.7812 32.3438H34.7812V33H36.7812H38.7812V32.3438H36.7812ZM36.7812 33V31H26.7812V33V35H36.7812V33ZM26.7812 33H28.7812V32.3438H26.7812H24.7812V33H26.7812ZM26.7812 32.3438L26.8987 34.3403C27.6621 34.2954 28.3643 34.2127 28.9538 34.0653L28.4688 32.125L27.9837 30.1847C27.7399 30.2457 27.317 30.3088 26.6638 30.3472L26.7812 32.3438ZM28.4688 32.125L28.932 34.0706C29.6336 33.9036 30.3685 33.572 30.9431 32.9452L29.4688 31.5938L27.9944 30.2423C28.0213 30.213 28.0468 30.1907 28.0679 30.1747C28.0888 30.1588 28.1035 30.1505 28.1086 30.1478C28.1174 30.1431 28.0894 30.1594 28.0055 30.1794L28.4688 32.125ZM29.4688 31.5938L30.9955 32.8856C31.5209 32.2647 31.7835 31.5327 31.8861 30.8141L29.9062 30.5312L27.9264 30.2484C27.9151 30.3274 27.9015 30.3613 27.9006 30.3635C27.9003 30.3643 27.9029 30.3578 27.91 30.346C27.9172 30.3341 27.9277 30.3188 27.942 30.3019L29.4688 31.5938ZM29.9062 30.5312L31.874 30.889C31.9877 30.2636 32.0312 29.5257 32.0312 28.7188H30.0312H28.0312C28.0312 29.4118 27.9915 29.8822 27.9385 30.1735L29.9062 30.5312ZM30.0312 28.7188H32.0312V12.5625H30.0312H28.0312V28.7188H30.0312ZM30.0312 12.5625L28.204 11.7494L19.1102 32.1869L20.9375 33L22.7648 33.8131L31.8585 13.3756L30.0312 12.5625Z" fill="#D7E9D7" mask="url(#path-1-outside-1_14_33)"/>
<mask id="path-3-outside-2_14_33" maskUnits="userSpaceOnUse" x="27" y="20" width="21" height="30" fill="black">
<rect fill="white" x="27" y="20" width="21" height="30"/>
<path d="M44.7188 30.5H43.8438C43.6979 29.9792 43.5521 29.5208 43.4062 29.125C43.2812 28.7292 43.125 28.375 42.9375 28.0625C42.7708 27.7292 42.5833 27.4375 42.375 27.1875C42.1667 26.9167 41.9271 26.6354 41.6562 26.3438C40.4062 25.0312 38.9479 24.375 37.2812 24.375C36.1771 24.375 35.2812 24.6667 34.5938 25.25C33.9271 25.8333 33.5938 26.625 33.5938 27.625C33.5938 28.6042 34 29.5208 34.8125 30.375C35.625 31.2292 36.9583 32.1667 38.8125 33.1875C41.1875 34.4792 42.8958 35.7396 43.9375 36.9688C45 38.1979 45.5312 39.5417 45.5312 41C45.5312 41.9167 45.3438 42.7708 44.9688 43.5625C44.5938 44.3542 44.0833 45.0417 43.4375 45.625C42.7917 46.2083 42.0208 46.6667 41.125 47C40.2292 47.3333 39.2708 47.5 38.25 47.5C37.5208 47.5 36.8021 47.4375 36.0938 47.3125C35.3854 47.1875 34.6979 46.9792 34.0312 46.6875C33.6771 46.5625 33.3542 46.4688 33.0625 46.4062C32.7708 46.3229 32.5312 46.2812 32.3438 46.2812C32.0729 46.2812 31.8438 46.3958 31.6562 46.625C31.4688 46.8542 31.3646 47.1354 31.3438 47.4688H30.5625L29.5 39.9062H30.3125C31.2083 42.0938 32.2292 43.6979 33.375 44.7188C34.5208 45.7188 35.9062 46.2188 37.5312 46.2188C38.8438 46.2188 39.8958 45.8542 40.6875 45.125C41.5 44.3958 41.9062 43.4375 41.9062 42.25C41.9062 41.7917 41.8542 41.3854 41.75 41.0312C41.6667 40.6771 41.5417 40.375 41.375 40.125C40.9583 39.4583 40.2917 38.7708 39.375 38.0625C38.4792 37.3542 37.3958 36.6458 36.125 35.9375C35.125 35.4167 34.2708 34.8958 33.5625 34.375C32.8542 33.8542 32.2708 33.3125 31.8125 32.75C31.375 32.1875 31.0521 31.6042 30.8438 31C30.6354 30.3958 30.5312 29.7396 30.5312 29.0312C30.5312 27.0521 31.2188 25.5104 32.5938 24.4062C33.1771 23.9271 33.8229 23.5625 34.5312 23.3125C35.2396 23.0417 35.9375 22.9062 36.625 22.9062C37.25 22.9062 37.875 22.9792 38.5 23.125C39.1458 23.25 39.8021 23.4375 40.4688 23.6875C40.8021 23.8333 41.1042 23.9375 41.375 24C41.6458 24.0625 41.875 24.0938 42.0625 24.0938C42.6458 24.0938 43.0208 23.6979 43.1875 22.9062H43.9375L44.7188 30.5Z"/>
</mask>
<path d="M44.7188 30.5H43.8438C43.6979 29.9792 43.5521 29.5208 43.4062 29.125C43.2812 28.7292 43.125 28.375 42.9375 28.0625C42.7708 27.7292 42.5833 27.4375 42.375 27.1875C42.1667 26.9167 41.9271 26.6354 41.6562 26.3438C40.4062 25.0312 38.9479 24.375 37.2812 24.375C36.1771 24.375 35.2812 24.6667 34.5938 25.25C33.9271 25.8333 33.5938 26.625 33.5938 27.625C33.5938 28.6042 34 29.5208 34.8125 30.375C35.625 31.2292 36.9583 32.1667 38.8125 33.1875C41.1875 34.4792 42.8958 35.7396 43.9375 36.9688C45 38.1979 45.5312 39.5417 45.5312 41C45.5312 41.9167 45.3438 42.7708 44.9688 43.5625C44.5938 44.3542 44.0833 45.0417 43.4375 45.625C42.7917 46.2083 42.0208 46.6667 41.125 47C40.2292 47.3333 39.2708 47.5 38.25 47.5C37.5208 47.5 36.8021 47.4375 36.0938 47.3125C35.3854 47.1875 34.6979 46.9792 34.0312 46.6875C33.6771 46.5625 33.3542 46.4688 33.0625 46.4062C32.7708 46.3229 32.5312 46.2812 32.3438 46.2812C32.0729 46.2812 31.8438 46.3958 31.6562 46.625C31.4688 46.8542 31.3646 47.1354 31.3438 47.4688H30.5625L29.5 39.9062H30.3125C31.2083 42.0938 32.2292 43.6979 33.375 44.7188C34.5208 45.7188 35.9062 46.2188 37.5312 46.2188C38.8438 46.2188 39.8958 45.8542 40.6875 45.125C41.5 44.3958 41.9062 43.4375 41.9062 42.25C41.9062 41.7917 41.8542 41.3854 41.75 41.0312C41.6667 40.6771 41.5417 40.375 41.375 40.125C40.9583 39.4583 40.2917 38.7708 39.375 38.0625C38.4792 37.3542 37.3958 36.6458 36.125 35.9375C35.125 35.4167 34.2708 34.8958 33.5625 34.375C32.8542 33.8542 32.2708 33.3125 31.8125 32.75C31.375 32.1875 31.0521 31.6042 30.8438 31C30.6354 30.3958 30.5312 29.7396 30.5312 29.0312C30.5312 27.0521 31.2188 25.5104 32.5938 24.4062C33.1771 23.9271 33.8229 23.5625 34.5312 23.3125C35.2396 23.0417 35.9375 22.9062 36.625 22.9062C37.25 22.9062 37.875 22.9792 38.5 23.125C39.1458 23.25 39.8021 23.4375 40.4688 23.6875C40.8021 23.8333 41.1042 23.9375 41.375 24C41.6458 24.0625 41.875 24.0938 42.0625 24.0938C42.6458 24.0938 43.0208 23.6979 43.1875 22.9062H43.9375L44.7188 30.5Z" fill="#1E3423"/>
<path d="M44.7188 30.5V32.5H46.9351L46.7082 30.2953L44.7188 30.5ZM43.8438 30.5L41.9178 31.0393L42.3268 32.5H43.8438V30.5ZM43.4062 29.125L41.4991 29.7273L41.5133 29.7722L41.5296 29.8164L43.4062 29.125ZM42.9375 28.0625L41.1486 28.9569L41.183 29.0256L41.2225 29.0915L42.9375 28.0625ZM42.375 27.1875L40.7898 28.4069L40.8136 28.4379L40.8386 28.4679L42.375 27.1875ZM41.6562 26.3438L43.1218 24.9828L43.1132 24.9736L43.1045 24.9644L41.6562 26.3438ZM34.5938 25.25L33.2998 23.725L33.2882 23.7348L33.2767 23.7448L34.5938 25.25ZM34.8125 30.375L33.3634 31.7534L34.8125 30.375ZM38.8125 33.1875L37.8479 34.9395L37.857 34.9445L38.8125 33.1875ZM43.9375 36.9688L42.4117 38.2618L42.418 38.2693L42.4244 38.2767L43.9375 36.9688ZM43.4375 45.625L44.7781 47.1092L43.4375 45.625ZM36.0938 47.3125L35.7462 49.2821L36.0938 47.3125ZM34.0312 46.6875L34.8329 44.8552L34.7659 44.8259L34.6969 44.8015L34.0312 46.6875ZM33.0625 46.4062L32.5131 48.3293L32.5777 48.3478L32.6434 48.3619L33.0625 46.4062ZM31.3438 47.4688V49.4688H33.2227L33.3399 47.5935L31.3438 47.4688ZM30.5625 47.4688L28.582 47.747L28.8238 49.4688H30.5625V47.4688ZM29.5 39.9062V37.9062H27.1994L27.5195 40.1845L29.5 39.9062ZM30.3125 39.9062L32.1633 39.1483L31.6547 37.9062H30.3125V39.9062ZM33.375 44.7188L32.0446 46.2121L32.0522 46.2189L32.0599 46.2256L33.375 44.7188ZM40.6875 45.125L39.3517 43.6365L39.3421 43.6451L39.3325 43.6539L40.6875 45.125ZM41.75 41.0312L39.8032 41.4893L39.8158 41.5428L39.8313 41.5956L41.75 41.0312ZM41.375 40.125L39.679 41.185L39.6946 41.2099L39.7109 41.2344L41.375 40.125ZM39.375 38.0625L38.1345 39.6313L38.1433 39.6383L38.1521 39.6451L39.375 38.0625ZM36.125 35.9375L37.0987 34.1905L37.074 34.1768L37.0489 34.1637L36.125 35.9375ZM31.8125 32.75L30.2338 33.9779L30.2477 33.9958L30.262 34.0133L31.8125 32.75ZM30.8438 31L28.953 31.652L30.8438 31ZM32.5938 24.4062L33.846 25.9657L33.8547 25.9587L33.8632 25.9517L32.5938 24.4062ZM34.5312 23.3125L35.1969 25.1985L35.2213 25.1899L35.2455 25.1806L34.5312 23.3125ZM38.5 23.125L38.0455 25.0727L38.0826 25.0813L38.12 25.0886L38.5 23.125ZM40.4688 23.6875L41.2704 21.8552L41.2212 21.8337L41.171 21.8148L40.4688 23.6875ZM43.1875 22.9062V20.9062H41.5647L41.2304 22.4942L43.1875 22.9062ZM43.9375 22.9062L45.927 22.7016L45.7423 20.9062H43.9375V22.9062ZM44.7188 30.5V28.5H43.8438V30.5V32.5H44.7188V30.5ZM43.8438 30.5L45.7697 29.9607C45.6132 29.4021 45.4515 28.8911 45.2829 28.4336L43.4062 29.125L41.5296 29.8164C41.6527 30.1506 41.7826 30.5563 41.9178 31.0393L43.8438 30.5ZM43.4062 29.125L45.3134 28.5227C45.1477 27.9979 44.9308 27.4973 44.6525 27.0335L42.9375 28.0625L41.2225 29.0915C41.3192 29.2527 41.4148 29.4605 41.4991 29.7273L43.4062 29.125ZM42.9375 28.0625L44.7264 27.1681C44.5005 26.7163 44.2316 26.2913 43.9114 25.9071L42.375 27.1875L40.8386 28.4679C40.9351 28.5837 41.0412 28.742 41.1486 28.9569L42.9375 28.0625ZM42.375 27.1875L43.9602 25.9681C43.7087 25.6411 43.4281 25.3126 43.1218 24.9828L41.6562 26.3438L40.1907 27.7047C40.4261 27.9582 40.6246 28.1923 40.7898 28.4069L42.375 27.1875ZM41.6562 26.3438L43.1045 24.9644C41.5137 23.2941 39.5463 22.375 37.2812 22.375V24.375V26.375C38.3495 26.375 39.2988 26.7684 40.208 27.7231L41.6562 26.3438ZM37.2812 24.375V22.375C35.8136 22.375 34.4249 22.7704 33.2998 23.725L34.5938 25.25L35.8877 26.775C36.1376 26.563 36.5405 26.375 37.2812 26.375V24.375ZM34.5938 25.25L33.2767 23.7448C32.1174 24.7593 31.5938 26.1311 31.5938 27.625H33.5938H35.5938C35.5938 27.1189 35.7368 26.9074 35.9108 26.7552L34.5938 25.25ZM33.5938 27.625H31.5938C31.5938 29.2185 32.2738 30.6079 33.3634 31.7534L34.8125 30.375L36.2616 28.9966C35.7262 28.4337 35.5938 27.9898 35.5938 27.625H33.5938ZM34.8125 30.375L33.3634 31.7534C34.3875 32.83 35.9328 33.8851 37.8479 34.9395L38.8125 33.1875L39.7771 31.4355C37.9838 30.4482 36.8625 29.6283 36.2616 28.9966L34.8125 30.375ZM38.8125 33.1875L37.857 34.9445C40.1418 36.1871 41.6023 37.3066 42.4117 38.2618L43.9375 36.9688L45.4633 35.6757C44.1894 34.1725 42.2332 32.7712 39.768 31.4305L38.8125 33.1875ZM43.9375 36.9688L42.4244 38.2767C43.2112 39.1869 43.5312 40.0776 43.5312 41H45.5312H47.5312C47.5312 39.0058 46.7888 37.209 45.4506 35.6608L43.9375 36.9688ZM45.5312 41H43.5312C43.5312 41.6346 43.4036 42.1947 43.1613 42.7063L44.9688 43.5625L46.7762 44.4187C47.2839 43.3469 47.5312 42.1987 47.5312 41H45.5312ZM44.9688 43.5625L43.1613 42.7063C42.8983 43.2616 42.546 43.7352 42.0969 44.1408L43.4375 45.625L44.7781 47.1092C45.6207 46.3481 46.2892 45.4468 46.7762 44.4187L44.9688 43.5625ZM43.4375 45.625L42.0969 44.1408C41.6565 44.5386 41.1096 44.8718 40.4275 45.1256L41.125 47L41.8225 48.8744C42.9321 48.4616 43.9268 47.8781 44.7781 47.1092L43.4375 45.625ZM41.125 47L40.4275 45.1256C39.7696 45.3704 39.049 45.5 38.25 45.5V47.5V49.5C39.4926 49.5 40.6887 49.2963 41.8225 48.8744L41.125 47ZM38.25 47.5V45.5C37.6357 45.5 37.0333 45.4474 36.4413 45.3429L36.0938 47.3125L35.7462 49.2821C36.5708 49.4276 37.4059 49.5 38.25 49.5V47.5ZM36.0938 47.3125L36.4413 45.3429C35.8911 45.2458 35.3559 45.084 34.8329 44.8552L34.0312 46.6875L33.2296 48.5198C34.0399 48.8743 34.8798 49.1292 35.7462 49.2821L36.0938 47.3125ZM34.0312 46.6875L34.6969 44.8015C34.2817 44.655 33.875 44.5349 33.4816 44.4506L33.0625 46.4062L32.6434 48.3619C32.8334 48.4026 33.0725 48.47 33.3656 48.5735L34.0312 46.6875ZM33.0625 46.4062L33.6119 44.4832C33.2372 44.3761 32.7955 44.2812 32.3438 44.2812V46.2812V48.2812C32.2947 48.2812 32.2834 48.2763 32.3214 48.2829C32.3569 48.2891 32.4194 48.3025 32.5131 48.3293L33.0625 46.4062ZM32.3438 46.2812V44.2812C31.4121 44.2812 30.6354 44.7144 30.1083 45.3585L31.6562 46.625L33.2042 47.8915C33.147 47.9614 33.0371 48.0691 32.8632 48.156C32.6842 48.2455 32.5006 48.2812 32.3438 48.2812V46.2812ZM31.6562 46.625L30.1083 45.3585C29.6222 45.9527 29.3911 46.6483 29.3476 47.344L31.3438 47.4688L33.3399 47.5935C33.3395 47.5998 33.3359 47.6406 33.313 47.7024C33.2893 47.7665 33.2523 47.8326 33.2042 47.8915L31.6562 46.625ZM31.3438 47.4688V45.4688H30.5625V47.4688V49.4688H31.3438V47.4688ZM30.5625 47.4688L32.543 47.1905L31.4805 39.628L29.5 39.9062L27.5195 40.1845L28.582 47.747L30.5625 47.4688ZM29.5 39.9062V41.9062H30.3125V39.9062V37.9062H29.5V39.9062ZM30.3125 39.9062L28.4617 40.6642C29.4165 42.9956 30.5819 44.909 32.0446 46.2121L33.375 44.7188L34.7054 43.2254C33.8764 42.4869 33.0002 41.1919 32.1633 39.1483L30.3125 39.9062ZM33.375 44.7188L32.0599 46.2256C33.5963 47.5664 35.4586 48.2188 37.5312 48.2188V46.2188V44.2188C36.3539 44.2188 35.4454 43.8711 34.6901 43.2119L33.375 44.7188ZM37.5312 46.2188V48.2188C39.2299 48.2188 40.8043 47.7365 42.0425 46.5961L40.6875 45.125L39.3325 43.6539C38.9873 43.9719 38.4576 44.2188 37.5312 44.2188V46.2188ZM40.6875 45.125L42.0233 46.6135C43.2984 45.4692 43.9062 43.9496 43.9062 42.25H41.9062H39.9062C39.9062 42.9254 39.7016 43.3225 39.3517 43.6365L40.6875 45.125ZM41.9062 42.25H43.9062C43.9062 41.6447 43.838 41.0423 43.6687 40.4669L41.75 41.0312L39.8313 41.5956C39.8704 41.7285 39.9062 41.9386 39.9062 42.25H41.9062ZM41.75 41.0312L43.6968 40.5732C43.57 40.0343 43.3627 39.501 43.0391 39.0156L41.375 40.125L39.7109 41.2344C39.7206 41.249 39.7633 41.3198 39.8032 41.4893L41.75 41.0312ZM41.375 40.125L43.071 39.065C42.4843 38.1263 41.6215 37.2709 40.5979 36.4799L39.375 38.0625L38.1521 39.6451C38.9618 40.2708 39.4323 40.7903 39.679 41.185L41.375 40.125ZM39.375 38.0625L40.6155 36.4937C39.6165 35.7038 38.4391 34.9376 37.0987 34.1905L36.125 35.9375L35.1513 37.6845C36.3526 38.354 37.3418 39.0045 38.1345 39.6313L39.375 38.0625ZM36.125 35.9375L37.0489 34.1637C36.1159 33.6777 35.3537 33.2096 34.7473 32.7637L33.5625 34.375L32.3777 35.9863C33.188 36.5821 34.1341 37.1556 35.2011 37.7113L36.125 35.9375ZM33.5625 34.375L34.7473 32.7637C34.1474 32.3226 33.6949 31.894 33.363 31.4867L31.8125 32.75L30.262 34.0133C30.8468 34.731 31.5609 35.3857 32.3777 35.9863L33.5625 34.375ZM31.8125 32.75L33.3912 31.5221C33.0733 31.1133 32.8634 30.7219 32.7345 30.348L30.8438 31L28.953 31.652C29.2407 32.4864 29.6767 33.2617 30.2338 33.9779L31.8125 32.75ZM30.8438 31L32.7345 30.348C32.6059 29.9751 32.5312 29.5416 32.5312 29.0312H30.5312H28.5312C28.5312 29.9376 28.6649 30.8166 28.953 31.652L30.8438 31ZM30.5312 29.0312H32.5312C32.5312 27.5743 33.0056 26.6406 33.846 25.9657L32.5938 24.4062L31.3415 22.8468C29.4319 24.3803 28.5312 26.5299 28.5312 29.0312H30.5312ZM32.5938 24.4062L33.8632 25.9517C34.2676 25.6196 34.7092 25.3706 35.1969 25.1985L34.5312 23.3125L33.8656 21.4265C32.9366 21.7544 32.0866 22.2346 31.3243 22.8608L32.5938 24.4062ZM34.5312 23.3125L35.2455 25.1806C35.7493 24.988 36.2056 24.9062 36.625 24.9062V22.9062V20.9062C35.6694 20.9062 34.7299 21.0953 33.817 21.4444L34.5312 23.3125ZM36.625 22.9062V24.9062C37.0929 24.9062 37.5655 24.9607 38.0455 25.0727L38.5 23.125L38.9545 21.1773C38.1845 20.9977 37.4071 20.9062 36.625 20.9062V22.9062ZM38.5 23.125L38.12 25.0886C38.6475 25.1907 39.196 25.3462 39.7665 25.5602L40.4688 23.6875L41.171 21.8148C40.4081 21.5288 39.6442 21.3093 38.88 21.1614L38.5 23.125ZM40.4688 23.6875L39.6671 25.5198C40.0813 25.701 40.5035 25.8514 40.9253 25.9488L41.375 24L41.8247 22.0512C41.7049 22.0236 41.5229 21.9656 41.2704 21.8552L40.4688 23.6875ZM41.375 24L40.9253 25.9488C41.2801 26.0307 41.67 26.0938 42.0625 26.0938V24.0938V22.0938C42.0771 22.0938 42.065 22.0948 42.0202 22.0887C41.9765 22.0827 41.9122 22.0714 41.8247 22.0512L41.375 24ZM42.0625 24.0938V26.0938C42.8605 26.0938 43.6395 25.799 44.2332 25.1724C44.7694 24.6063 45.0196 23.9122 45.1446 23.3183L43.1875 22.9062L41.2304 22.4942C41.1888 22.6919 41.1681 22.5916 41.3293 22.4214C41.419 22.3268 41.5436 22.2345 41.6974 22.171C41.8483 22.1087 41.9791 22.0938 42.0625 22.0938V24.0938ZM43.1875 22.9062V24.9062H43.9375V22.9062V20.9062H43.1875V22.9062ZM43.9375 22.9062L41.948 23.1109L42.7293 30.7047L44.7188 30.5L46.7082 30.2953L45.927 22.7016L43.9375 22.9062Z" fill="#D7E9D7" mask="url(#path-3-outside-2_14_33)"/>
</g>
<defs>
<clipPath id="clip0_14_33">
<rect width="54" height="54" fill="white"/>
</clipPath>
</defs>
</svg>
